<?xml version="1.0" standalone="no"?>
<svg xmlns="http://www.w3.org/2000/svg" version="1.1" xmlns:xlink="http://www.w3.org/1999/xlink" width="512" height="512" x="0" y="0" viewBox="0 0 468.33 468.33" style="enable-background:new 0 0 512 512" xml:space="preserve"><g><path d="M200.272 184.634c-15.906.001-22.796-11.485-25.947-19.035-13.61 6.651-25.292 9.403-26.318 9.637a5 5 0 1 1-2.225-9.749c.33-.077 11.798-2.808 24.879-9.317-7.675-20.587.661-43.763 19.978-53.998 13.714-8.222 31.163 6.958 25.44 21.724-5.879 16.98-19.419 28.88-32.892 36.917 3.367 8.586 8.818 16.343 23.63 13.034 5.796-1.294 10.14-6.129 10.564-11.757-.663-5.345 6.866-7.952 9.421-3.112 2.615 4.746 9.99 14.42 16.017 13.958 4.63-.348 9.491-6.802 13.687-18.171 1.269-3.818 6.893-4.406 8.922-.932 2.012 3.172 9.12 12.13 15.116 11.6 3.732-.329 7.583-4.887 10.843-12.835 1.249-3.316 5.969-4.171 8.297-1.496 3.901 3.884 11.376 7.936 17.874-.471a5 5 0 0 1 7.735 6.339c-4.56 5.563-9.848 8.473-15.717 8.647-4.675.147-8.722-1.514-11.725-3.334-4.476 8.151-9.995 12.556-16.456 13.114-7.728.673-14.45-4.483-18.894-9.186-5.241 10.665-11.483 16.147-18.956 16.698-7.978.583-14.745-4.979-19.321-10.286-4.429 8.166-14.983 12.29-23.952 12.011zm-4.954-73.625c-14.702 7.031-20.83 24.688-15.785 40.238 11.378-7.04 22.384-17.014 27.095-30.623 1.847-5.844-4.83-12.714-11.31-9.615zM327.16 69.968H148.218a5 5 0 0 1 0-10H327.16a5 5 0 0 1 0 10zM411.16 5h-.228c.075 0 .148.005.223.006z" fill="#090909" opacity="1" data-original="#000000"/><path d="m465.817 300.212-66.636-114.591c-4.767-8.2-15.331-11.009-23.545-6.269l-30.413 17.556c-6.417 3.571-9.882 11.482-8.245 18.6l-25.95 6.55a34.822 34.822 0 0 1-20.39-1.003l-36.147-13.015c-12.879-4.638-26.967-3.205-38.651 3.93l-33.658 20.558c-8.271-3.353-16.073-5.476-23.214-6.287a67.088 67.088 0 0 1-22.108-6.497c3.302-7.342.575-16.732-6.217-21.132l-29.115-19.635c-7.864-5.304-18.597-3.238-23.925 4.609l-74.46 109.66c-5.387 7.591-3.187 18.98 4.635 24.024l29.111 19.633c5.972 4.041 13.808 3.865 19.612-.226a90.308 90.308 0 0 0 18.863 17.615l-5.911 8.442c-7.266 10.377-4.735 24.73 5.642 31.995a22.848 22.848 0 0 0 13.145 4.147c.55 0 1.099-.026 1.646-.065-1.815 8.723 1.556 18.102 9.306 23.528 5.975 4.16 13.198 5.17 19.935 3.125.064.861.171 1.724.333 2.587 1.148 6.123 4.633 11.402 9.808 14.862 7.898 5.474 18.45 5.303 26.223-.105a22.78 22.78 0 0 0 8.693 11.852c10.26 7.216 24.687 4.804 31.996-5.642l2.231-3.186 23.448 17.917c9.698 7.616 23.23 5.426 31.112-4.292a24.335 24.335 0 0 0 5.415-14.286c9.876 7.381 25.005 5.351 32.584-4.406 3.199-3.95 5.025-8.703 5.306-13.68l.376.305c10.271 8.319 25.397 6.729 33.716-3.542a23.869 23.869 0 0 0 5.324-15.666c9.302 3.075 19.962.302 26.488-7.751 8.258-10.192 6.813-25.359-3.183-33.776L238.362 263.01a5.002 5.002 0 0 0-4.691-.998l-27.814 8.317a4.997 4.997 0 0 0-2.449 1.64l-18.083 22.277c-11.34 13.972-31.222 18.207-47.271 10.067-2.673-1.269-3.586-4.956-1.815-7.326l28.972-40.943a14.873 14.873 0 0 1 4.417-4.128l51.427-31.411c9.083-5.548 20.036-6.663 30.051-3.056l36.147 13.015a44.795 44.795 0 0 0 26.225 1.291l27.874-7.036 30.985 53.279 31.791 54.666c-6.237 7.131-15.874 15.998-29.104 22.264a5 5 0 1 0 4.28 9.038c11.56-5.475 22.257-13.522 31.21-23.436 5.443 3.85 12.747 4.272 18.597.876l30.408-17.553c8.155-4.484 11.143-15.694 6.298-23.641zm-415.734 3.437c-3.003 4.448-9.047 5.621-13.5 2.62s-5.629-9.04-2.626-13.488 9.047-5.621 13.5-2.62 5.629 9.04 2.626 13.488zm46.768 81.979c-4.299 3.932-11.282 4.351-16.021.909-5.86-4.103-7.289-12.208-3.186-18.068l9.029-12.895c4.127-5.899 12.274-7.26 18.069-3.186 5.004 3.504 6.763 9.924 4.619 15.374zm26.144 25.333c-4.104 5.861-12.21 7.289-18.068 3.187-5.86-4.104-7.29-12.208-3.187-18.068l26.211-37.432c4.128-5.9 12.274-7.261 18.069-3.187 5.858 4.102 7.288 12.202 3.191 18.062zm29.983 20.454c-4.01 5.768-12.022 7.285-17.858 3.383-6.175-3.722-7.977-12.599-3.71-18.418l31.715-45.293c4.104-5.86 12.208-7.29 18.08-3.178l.121.084c5.84 4.089 7.281 12.179 3.211 18.033zm35.008 11.869c-4.104 5.858-12.208 7.288-18.069 3.186-4.771-3.221-6.794-9.765-4.725-15.104l18.203-26.182c4.449-4.06 11.202-4.533 16.161-1.042 5.796 3.882 7.304 12.438 3.186 18.068zm-23.573-199.902a24.829 24.829 0 0 0-7.367 6.886l-28.972 40.943c-5.3 7.13-2.56 18.19 5.456 22.021 20.221 10.253 45.27 4.919 59.559-12.684l17.111-21.08 23.719-7.093 118.597 101.898c5.896 4.964 6.745 13.875 1.891 19.866-4.945 6.103-13.936 7.048-20.042 2.104l-62.013-50.218a5 5 0 1 0-6.293 7.771l54.467 44.107.003.003.006.005c5.982 4.85 6.907 13.661 2.061 19.646-4.848 5.987-13.663 6.913-19.651 2.063l-61.299-49.64a5 5 0 1 0-6.293 7.771l45.779 37.072c5.934 4.605 6.913 13.913 2.066 19.651-4.606 5.935-13.91 6.909-19.651 2.064l-32.943-26.677a5 5 0 1 0-6.293 7.771l18.762 15.193.004.004.007.005c6.177 5.024 7.126 14.143 2.116 20.331-4.515 5.575-12.038 6.783-17.199 2.694l-23.849-18.224 6.785-9.689c7.293-9.969 4.62-25.122-5.642-31.996a22.84 22.84 0 0 0-12.601-4.137l.056-.08c7.207-10.366 4.656-24.69-5.697-31.94l-.121-.084c-8.099-5.671-18.621-5.373-26.305-.034a22.861 22.861 0 0 0-8.867-12.405c-10.375-7.266-24.73-4.734-31.996 5.642l-1.127 1.609a22.83 22.83 0 0 0-8.156-10.323c-9.094-6.367-21.243-5.209-28.998 2.159a80.4 80.4 0 0 1-18.376-17.435l68.372-100.686c8.102 4.157 17.119 6.892 26.364 7.943 4.194.476 8.691 1.483 13.445 3.006zm267.138 67.486c-4.651 2.683-10.599 1.091-13.285-3.556s-1.092-10.589 3.56-13.272c4.651-2.683 10.599-1.091 13.285 3.556 2.685 4.647 1.091 10.589-3.56 13.272zM413.074.062V0H117.16c-13.785 0-25 11.215-25 25v127.238a5 5 0 0 0 10 0V25c0-8.271 6.729-15 15-15h267.777c-7.842 7.077-12.777 17.299-12.777 28.65v88.943a5 5 0 0 0 10 0V89.849h62.544a5 5 0 0 0 5-5V38.65c-.001-20.595-16.244-37.475-36.63-38.588z" fill="#090909" opacity="1" data-original="#000000"/><circle cx="377.16" cy="153.781" r="6.5" fill="#090909" opacity="1" data-original="#000000"/></g></svg>