<?xml version="1.0" standalone="no"?>
<svg xmlns="http://www.w3.org/2000/svg" version="1.1" xmlns:xlink="http://www.w3.org/1999/xlink" width="512" height="512" x="0" y="0" viewBox="0 0 512 512" style="enable-background:new 0 0 512 512" xml:space="preserve"><g><path d="M448.376 71.138a7.514 7.514 0 0 0 7.515-7.515V7.515A7.514 7.514 0 0 0 448.376 0H63.624a7.514 7.514 0 0 0-7.515 7.515v496.971a7.514 7.514 0 0 0 7.515 7.515h297.581c1.97 0 3.921-.809 5.314-2.2l87.17-87.17a7.6 7.6 0 0 0 2.2-5.314V99.699c0-4.151-3.364-7.515-7.515-7.515s-7.515 3.364-7.515 7.515V409.8h-79.656a7.514 7.514 0 0 0-7.515 7.515v79.656H71.139V15.029h369.722v48.594a7.514 7.514 0 0 0 7.515 7.515zM368.72 424.83h61.514l-61.514 61.514V424.83z" fill="#000000" opacity="1" data-original="#000000"/><path d="M408.297 56.11H103.703a7.514 7.514 0 0 0-7.515 7.515v104.203a7.514 7.514 0 0 0 7.515 7.515h304.595a7.514 7.514 0 0 0 7.515-7.515V63.624a7.514 7.514 0 0 0-7.516-7.514zm-7.514 104.203H111.217V71.139h289.566v89.174zM239.969 192.376H103.703a7.514 7.514 0 0 0-7.515 7.515v192.376a7.514 7.514 0 0 0 7.515 7.515h136.266a7.514 7.514 0 0 0 7.515-7.515V199.89a7.514 7.514 0 0 0-7.515-7.514zm-7.515 192.375H111.217V207.405h121.237v177.346zM408.297 192.376H272.031a7.514 7.514 0 0 0-7.515 7.515v80.157a7.514 7.514 0 0 0 7.515 7.515h136.266a7.514 7.514 0 0 0 7.515-7.515V199.89a7.513 7.513 0 0 0-7.515-7.514zm-7.514 80.156H279.546v-65.127h121.237v65.127zM408.297 304.595H272.031a7.514 7.514 0 0 0-7.515 7.515v80.157a7.514 7.514 0 0 0 7.515 7.515h136.266a7.514 7.514 0 0 0 7.515-7.515V312.11a7.513 7.513 0 0 0-7.515-7.515zm-7.514 80.156H279.546v-65.127h121.237v65.127z" fill="#000000" opacity="1" data-original="#000000"/></g></svg>